<mxfile host="app.diagrams.net" modified="2023-03-04T03:21:54.509Z" agent="5.0 (Windows NT 10.0; Win64; x64) AppleWebKit/537.36 (KHTML, like Gecko) Chrome/84.0.4147.135 Safari/537.36" etag="oQUvYJftS2gf50jW_a-D" version="21.0.2" type="github" pages="2">
  <diagram name="第 1 页" id="xpgsP24Q8yST1N1dYpLn">
    <mxGraphModel dx="1829" dy="900" grid="1" gridSize="10" guides="1" tooltips="1" connect="1" arrows="1" fold="1" page="1" pageScale="1" pageWidth="2339" pageHeight="3300" math="0" shadow="0">
      <root>
        <mxCell id="0" />
        <mxCell id="1" parent="0" />
        <mxCell id="80T7CH2zztr_whJAa2gL-135" value="" style="rounded=1;whiteSpace=wrap;html=1;labelBackgroundColor=none;" parent="1" vertex="1">
          <mxGeometry x="625" y="2150" width="165" height="350" as="geometry" />
        </mxCell>
        <mxCell id="80T7CH2zztr_whJAa2gL-91" value="" style="rounded=1;whiteSpace=wrap;html=1;labelBackgroundColor=none;" parent="1" vertex="1">
          <mxGeometry x="610" y="960" width="1000" height="600" as="geometry" />
        </mxCell>
        <mxCell id="80T7CH2zztr_whJAa2gL-60" value="" style="rounded=0;whiteSpace=wrap;html=1;container=0;labelBackgroundColor=none;" parent="1" vertex="1">
          <mxGeometry x="1300" y="90" width="860" height="790" as="geometry" />
        </mxCell>
        <mxCell id="80T7CH2zztr_whJAa2gL-34" value="" style="edgeStyle=orthogonalEdgeStyle;rounded=0;orthogonalLoop=1;jettySize=auto;html=1;labelBackgroundColor=none;fontColor=default;" parent="1" source="80T7CH2zztr_whJAa2gL-32" target="80T7CH2zztr_whJAa2gL-33" edge="1">
          <mxGeometry relative="1" as="geometry" />
        </mxCell>
        <mxCell id="80T7CH2zztr_whJAa2gL-32" value="确认开启" style="rounded=1;whiteSpace=wrap;html=1;labelBackgroundColor=none;" parent="1" vertex="1">
          <mxGeometry x="1490" y="160" width="120" height="30" as="geometry" />
        </mxCell>
        <mxCell id="80T7CH2zztr_whJAa2gL-36" value="" style="edgeStyle=orthogonalEdgeStyle;rounded=0;orthogonalLoop=1;jettySize=auto;html=1;labelBackgroundColor=none;fontColor=default;" parent="1" source="80T7CH2zztr_whJAa2gL-33" target="80T7CH2zztr_whJAa2gL-35" edge="1">
          <mxGeometry relative="1" as="geometry" />
        </mxCell>
        <mxCell id="80T7CH2zztr_whJAa2gL-33" value="调用百度取消" style="rounded=1;whiteSpace=wrap;html=1;labelBackgroundColor=none;" parent="1" vertex="1">
          <mxGeometry x="1490" y="250" width="120" height="30" as="geometry" />
        </mxCell>
        <mxCell id="80T7CH2zztr_whJAa2gL-40" value="" style="edgeStyle=orthogonalEdgeStyle;rounded=0;orthogonalLoop=1;jettySize=auto;html=1;labelBackgroundColor=none;fontColor=default;" parent="1" source="80T7CH2zztr_whJAa2gL-35" target="80T7CH2zztr_whJAa2gL-39" edge="1">
          <mxGeometry relative="1" as="geometry" />
        </mxCell>
        <mxCell id="80T7CH2zztr_whJAa2gL-35" value="司机发送文字通知" style="rounded=1;whiteSpace=wrap;html=1;labelBackgroundColor=none;" parent="1" vertex="1">
          <mxGeometry x="1490" y="340" width="120" height="30" as="geometry" />
        </mxCell>
        <mxCell id="80T7CH2zztr_whJAa2gL-42" value="" style="edgeStyle=orthogonalEdgeStyle;rounded=0;orthogonalLoop=1;jettySize=auto;html=1;labelBackgroundColor=none;fontColor=default;" parent="1" source="80T7CH2zztr_whJAa2gL-39" target="80T7CH2zztr_whJAa2gL-41" edge="1">
          <mxGeometry relative="1" as="geometry" />
        </mxCell>
        <mxCell id="80T7CH2zztr_whJAa2gL-39" value="从redis查数据" style="rounded=1;whiteSpace=wrap;html=1;labelBackgroundColor=none;" parent="1" vertex="1">
          <mxGeometry x="1490" y="450" width="120" height="30" as="geometry" />
        </mxCell>
        <mxCell id="80T7CH2zztr_whJAa2gL-44" value="" style="edgeStyle=orthogonalEdgeStyle;rounded=0;orthogonalLoop=1;jettySize=auto;html=1;labelBackgroundColor=none;fontColor=default;" parent="1" source="80T7CH2zztr_whJAa2gL-41" target="80T7CH2zztr_whJAa2gL-43" edge="1">
          <mxGeometry relative="1" as="geometry" />
        </mxCell>
        <mxCell id="80T7CH2zztr_whJAa2gL-48" value="" style="edgeStyle=orthogonalEdgeStyle;rounded=0;orthogonalLoop=1;jettySize=auto;html=1;labelBackgroundColor=none;fontColor=default;" parent="1" source="80T7CH2zztr_whJAa2gL-41" target="80T7CH2zztr_whJAa2gL-47" edge="1">
          <mxGeometry relative="1" as="geometry" />
        </mxCell>
        <mxCell id="80T7CH2zztr_whJAa2gL-41" value="存在" style="rhombus;whiteSpace=wrap;html=1;rounded=1;labelBackgroundColor=none;" parent="1" vertex="1">
          <mxGeometry x="1510" y="535" width="80" height="80" as="geometry" />
        </mxCell>
        <mxCell id="80T7CH2zztr_whJAa2gL-52" value="" style="edgeStyle=orthogonalEdgeStyle;rounded=0;orthogonalLoop=1;jettySize=auto;html=1;labelBackgroundColor=none;fontColor=default;" parent="1" source="80T7CH2zztr_whJAa2gL-43" target="80T7CH2zztr_whJAa2gL-51" edge="1">
          <mxGeometry relative="1" as="geometry" />
        </mxCell>
        <mxCell id="80T7CH2zztr_whJAa2gL-43" value="查询DB" style="whiteSpace=wrap;html=1;rounded=1;labelBackgroundColor=none;" parent="1" vertex="1">
          <mxGeometry x="1660" y="552.5" width="90" height="45" as="geometry" />
        </mxCell>
        <mxCell id="80T7CH2zztr_whJAa2gL-59" value="" style="edgeStyle=orthogonalEdgeStyle;rounded=0;orthogonalLoop=1;jettySize=auto;html=1;labelBackgroundColor=none;fontColor=default;" parent="1" source="80T7CH2zztr_whJAa2gL-47" edge="1">
          <mxGeometry relative="1" as="geometry">
            <mxPoint x="1550" y="820" as="targetPoint" />
          </mxGeometry>
        </mxCell>
        <mxCell id="80T7CH2zztr_whJAa2gL-47" value="新增数据，新增状态" style="whiteSpace=wrap;html=1;rounded=1;labelBackgroundColor=none;" parent="1" vertex="1">
          <mxGeometry x="1490" y="715" width="120" height="45" as="geometry" />
        </mxCell>
        <mxCell id="80T7CH2zztr_whJAa2gL-54" value="" style="edgeStyle=orthogonalEdgeStyle;rounded=0;orthogonalLoop=1;jettySize=auto;html=1;labelBackgroundColor=none;fontColor=default;" parent="1" source="80T7CH2zztr_whJAa2gL-51" target="80T7CH2zztr_whJAa2gL-53" edge="1">
          <mxGeometry relative="1" as="geometry" />
        </mxCell>
        <mxCell id="80T7CH2zztr_whJAa2gL-56" value="" style="edgeStyle=orthogonalEdgeStyle;rounded=0;orthogonalLoop=1;jettySize=auto;html=1;labelBackgroundColor=none;fontColor=default;" parent="1" source="80T7CH2zztr_whJAa2gL-51" target="80T7CH2zztr_whJAa2gL-55" edge="1">
          <mxGeometry relative="1" as="geometry" />
        </mxCell>
        <mxCell id="80T7CH2zztr_whJAa2gL-51" value="存在数据" style="rhombus;whiteSpace=wrap;html=1;rounded=1;labelBackgroundColor=none;" parent="1" vertex="1">
          <mxGeometry x="1835" y="535" width="80" height="80" as="geometry" />
        </mxCell>
        <mxCell id="80T7CH2zztr_whJAa2gL-53" value="新增数据双写BD、redis" style="whiteSpace=wrap;html=1;rounded=1;labelBackgroundColor=none;" parent="1" vertex="1">
          <mxGeometry x="1975" y="545" width="120" height="60" as="geometry" />
        </mxCell>
        <mxCell id="80T7CH2zztr_whJAa2gL-66" value="" style="edgeStyle=orthogonalEdgeStyle;rounded=0;orthogonalLoop=1;jettySize=auto;html=1;labelBackgroundColor=none;fontColor=default;" parent="1" source="80T7CH2zztr_whJAa2gL-55" target="80T7CH2zztr_whJAa2gL-65" edge="1">
          <mxGeometry relative="1" as="geometry" />
        </mxCell>
        <mxCell id="80T7CH2zztr_whJAa2gL-55" value="修改数据" style="whiteSpace=wrap;html=1;rounded=1;labelBackgroundColor=none;" parent="1" vertex="1">
          <mxGeometry x="1812.5" y="825" width="125" height="35" as="geometry" />
        </mxCell>
        <mxCell id="80T7CH2zztr_whJAa2gL-65" value="双写数据" style="whiteSpace=wrap;html=1;rounded=1;labelBackgroundColor=none;" parent="1" vertex="1">
          <mxGeometry x="1487.5" y="825" width="125" height="35" as="geometry" />
        </mxCell>
        <mxCell id="80T7CH2zztr_whJAa2gL-67" value="开启派车单" style="text;html=1;strokeColor=none;fillColor=none;align=center;verticalAlign=middle;whiteSpace=wrap;rounded=0;labelBackgroundColor=none;" parent="1" vertex="1">
          <mxGeometry x="1950" y="110" width="90" height="30" as="geometry" />
        </mxCell>
        <mxCell id="80T7CH2zztr_whJAa2gL-70" value="" style="edgeStyle=orthogonalEdgeStyle;rounded=0;orthogonalLoop=1;jettySize=auto;html=1;labelBackgroundColor=none;fontColor=default;" parent="1" source="80T7CH2zztr_whJAa2gL-68" target="80T7CH2zztr_whJAa2gL-69" edge="1">
          <mxGeometry relative="1" as="geometry" />
        </mxCell>
        <mxCell id="80T7CH2zztr_whJAa2gL-68" value="开始过磅" style="rounded=0;whiteSpace=wrap;html=1;labelBackgroundColor=none;" parent="1" vertex="1">
          <mxGeometry x="720" y="990" width="110" height="30" as="geometry" />
        </mxCell>
        <mxCell id="80T7CH2zztr_whJAa2gL-72" value="" style="edgeStyle=orthogonalEdgeStyle;rounded=0;orthogonalLoop=1;jettySize=auto;html=1;labelBackgroundColor=none;fontColor=default;" parent="1" source="80T7CH2zztr_whJAa2gL-69" target="80T7CH2zztr_whJAa2gL-71" edge="1">
          <mxGeometry relative="1" as="geometry" />
        </mxCell>
        <mxCell id="80T7CH2zztr_whJAa2gL-69" value="查询redis、mysql是否是第一次过磅" style="rounded=0;whiteSpace=wrap;html=1;labelBackgroundColor=none;" parent="1" vertex="1">
          <mxGeometry x="720" y="1100" width="110" height="30" as="geometry" />
        </mxCell>
        <mxCell id="80T7CH2zztr_whJAa2gL-74" value="" style="edgeStyle=orthogonalEdgeStyle;rounded=0;orthogonalLoop=1;jettySize=auto;html=1;labelBackgroundColor=none;fontColor=default;" parent="1" source="80T7CH2zztr_whJAa2gL-71" target="80T7CH2zztr_whJAa2gL-73" edge="1">
          <mxGeometry relative="1" as="geometry" />
        </mxCell>
        <mxCell id="80T7CH2zztr_whJAa2gL-88" value="" style="edgeStyle=orthogonalEdgeStyle;rounded=0;orthogonalLoop=1;jettySize=auto;html=1;labelBackgroundColor=none;fontColor=default;" parent="1" source="80T7CH2zztr_whJAa2gL-71" target="80T7CH2zztr_whJAa2gL-87" edge="1">
          <mxGeometry relative="1" as="geometry" />
        </mxCell>
        <mxCell id="80T7CH2zztr_whJAa2gL-71" value="是否第一次" style="rhombus;whiteSpace=wrap;html=1;rounded=0;labelBackgroundColor=none;" parent="1" vertex="1">
          <mxGeometry x="735" y="1185" width="80" height="80" as="geometry" />
        </mxCell>
        <mxCell id="80T7CH2zztr_whJAa2gL-78" value="" style="edgeStyle=orthogonalEdgeStyle;rounded=0;orthogonalLoop=1;jettySize=auto;html=1;labelBackgroundColor=none;fontColor=default;" parent="1" source="80T7CH2zztr_whJAa2gL-73" target="80T7CH2zztr_whJAa2gL-77" edge="1">
          <mxGeometry relative="1" as="geometry" />
        </mxCell>
        <mxCell id="80T7CH2zztr_whJAa2gL-73" value="查询redis、mysql" style="whiteSpace=wrap;html=1;rounded=0;labelBackgroundColor=none;" parent="1" vertex="1">
          <mxGeometry x="910" y="1201.25" width="110" height="47.5" as="geometry" />
        </mxCell>
        <mxCell id="80T7CH2zztr_whJAa2gL-81" value="" style="edgeStyle=orthogonalEdgeStyle;rounded=0;orthogonalLoop=1;jettySize=auto;html=1;labelBackgroundColor=none;fontColor=default;" parent="1" source="80T7CH2zztr_whJAa2gL-77" target="80T7CH2zztr_whJAa2gL-80" edge="1">
          <mxGeometry relative="1" as="geometry" />
        </mxCell>
        <mxCell id="80T7CH2zztr_whJAa2gL-85" value="" style="edgeStyle=orthogonalEdgeStyle;rounded=0;orthogonalLoop=1;jettySize=auto;html=1;labelBackgroundColor=none;fontColor=default;" parent="1" source="80T7CH2zztr_whJAa2gL-77" target="80T7CH2zztr_whJAa2gL-84" edge="1">
          <mxGeometry relative="1" as="geometry" />
        </mxCell>
        <mxCell id="80T7CH2zztr_whJAa2gL-77" value="进入围栏存在数据" style="rhombus;whiteSpace=wrap;html=1;rounded=0;labelBackgroundColor=none;" parent="1" vertex="1">
          <mxGeometry x="1115" y="1185" width="80" height="80" as="geometry" />
        </mxCell>
        <mxCell id="80T7CH2zztr_whJAa2gL-83" value="" style="edgeStyle=orthogonalEdgeStyle;rounded=0;orthogonalLoop=1;jettySize=auto;html=1;labelBackgroundColor=none;fontColor=default;" parent="1" source="80T7CH2zztr_whJAa2gL-80" target="80T7CH2zztr_whJAa2gL-82" edge="1">
          <mxGeometry relative="1" as="geometry" />
        </mxCell>
        <mxCell id="80T7CH2zztr_whJAa2gL-80" value="调用百度接口、过磅确认" style="whiteSpace=wrap;html=1;rounded=0;labelBackgroundColor=none;" parent="1" vertex="1">
          <mxGeometry x="1280" y="1201.25" width="100" height="47.5" as="geometry" />
        </mxCell>
        <mxCell id="80T7CH2zztr_whJAa2gL-82" value="修改redis的状态（操作标识）" style="whiteSpace=wrap;html=1;rounded=0;labelBackgroundColor=none;" parent="1" vertex="1">
          <mxGeometry x="1480" y="1201.25" width="100" height="47.5" as="geometry" />
        </mxCell>
        <mxCell id="80T7CH2zztr_whJAa2gL-84" value="异常情况不做处理" style="whiteSpace=wrap;html=1;rounded=0;labelBackgroundColor=none;" parent="1" vertex="1">
          <mxGeometry x="1097.5" y="1360" width="115" height="45" as="geometry" />
        </mxCell>
        <mxCell id="80T7CH2zztr_whJAa2gL-86" value="是" style="text;html=1;align=center;verticalAlign=middle;resizable=0;points=[];autosize=1;strokeColor=none;fillColor=none;labelBackgroundColor=none;" parent="1" vertex="1">
          <mxGeometry x="830" y="1205" width="40" height="30" as="geometry" />
        </mxCell>
        <mxCell id="80T7CH2zztr_whJAa2gL-90" value="" style="edgeStyle=orthogonalEdgeStyle;rounded=0;orthogonalLoop=1;jettySize=auto;html=1;labelBackgroundColor=none;fontColor=default;" parent="1" source="80T7CH2zztr_whJAa2gL-87" target="80T7CH2zztr_whJAa2gL-89" edge="1">
          <mxGeometry relative="1" as="geometry" />
        </mxCell>
        <mxCell id="80T7CH2zztr_whJAa2gL-87" value="语音播报一次" style="whiteSpace=wrap;html=1;rounded=0;labelBackgroundColor=none;" parent="1" vertex="1">
          <mxGeometry x="717.5" y="1360" width="115" height="40" as="geometry" />
        </mxCell>
        <mxCell id="80T7CH2zztr_whJAa2gL-89" value="同上面逻辑" style="whiteSpace=wrap;html=1;rounded=0;labelBackgroundColor=none;" parent="1" vertex="1">
          <mxGeometry x="717.5" y="1480" width="115" height="40" as="geometry" />
        </mxCell>
        <mxCell id="80T7CH2zztr_whJAa2gL-92" value="过磅逻辑" style="text;html=1;strokeColor=none;fillColor=none;align=center;verticalAlign=middle;whiteSpace=wrap;rounded=0;labelBackgroundColor=none;" parent="1" vertex="1">
          <mxGeometry x="1400" y="1030" width="60" height="30" as="geometry" />
        </mxCell>
        <mxCell id="80T7CH2zztr_whJAa2gL-93" value="开启派车单和取消派车单逻辑一样，都需要保存状态" style="shape=tape;whiteSpace=wrap;html=1;labelBackgroundColor=none;" parent="1" vertex="1">
          <mxGeometry x="1920" y="220" width="175" height="100" as="geometry" />
        </mxCell>
        <mxCell id="80T7CH2zztr_whJAa2gL-98" value="" style="edgeStyle=orthogonalEdgeStyle;rounded=0;orthogonalLoop=1;jettySize=auto;html=1;labelBackgroundColor=none;fontColor=default;" parent="1" source="80T7CH2zztr_whJAa2gL-96" target="80T7CH2zztr_whJAa2gL-97" edge="1">
          <mxGeometry relative="1" as="geometry" />
        </mxCell>
        <mxCell id="80T7CH2zztr_whJAa2gL-96" value="消费车辆位置" style="rounded=0;whiteSpace=wrap;html=1;labelBackgroundColor=none;" parent="1" vertex="1">
          <mxGeometry x="880" y="1680" width="120" height="30" as="geometry" />
        </mxCell>
        <mxCell id="80T7CH2zztr_whJAa2gL-100" value="" style="edgeStyle=orthogonalEdgeStyle;rounded=0;orthogonalLoop=1;jettySize=auto;html=1;labelBackgroundColor=none;fontColor=default;" parent="1" source="80T7CH2zztr_whJAa2gL-97" target="80T7CH2zztr_whJAa2gL-99" edge="1">
          <mxGeometry relative="1" as="geometry" />
        </mxCell>
        <mxCell id="80T7CH2zztr_whJAa2gL-97" value="查询redis和数据库获取大单信息和派车单信息" style="rounded=0;whiteSpace=wrap;html=1;labelBackgroundColor=none;" parent="1" vertex="1">
          <mxGeometry x="880" y="1780" width="120" height="50" as="geometry" />
        </mxCell>
        <mxCell id="80T7CH2zztr_whJAa2gL-102" value="" style="edgeStyle=orthogonalEdgeStyle;rounded=0;orthogonalLoop=1;jettySize=auto;html=1;labelBackgroundColor=none;fontColor=default;" parent="1" source="80T7CH2zztr_whJAa2gL-99" target="80T7CH2zztr_whJAa2gL-101" edge="1">
          <mxGeometry relative="1" as="geometry" />
        </mxCell>
        <mxCell id="80T7CH2zztr_whJAa2gL-104" style="edgeStyle=orthogonalEdgeStyle;rounded=0;orthogonalLoop=1;jettySize=auto;html=1;entryX=1;entryY=0.5;entryDx=0;entryDy=0;labelBackgroundColor=none;fontColor=default;" parent="1" source="80T7CH2zztr_whJAa2gL-99" target="80T7CH2zztr_whJAa2gL-103" edge="1">
          <mxGeometry relative="1" as="geometry" />
        </mxCell>
        <mxCell id="80T7CH2zztr_whJAa2gL-107" value="" style="edgeStyle=orthogonalEdgeStyle;rounded=0;orthogonalLoop=1;jettySize=auto;html=1;labelBackgroundColor=none;fontColor=default;" parent="1" source="80T7CH2zztr_whJAa2gL-99" target="80T7CH2zztr_whJAa2gL-106" edge="1">
          <mxGeometry relative="1" as="geometry" />
        </mxCell>
        <mxCell id="80T7CH2zztr_whJAa2gL-99" value="进入送货地围栏" style="rounded=0;whiteSpace=wrap;html=1;labelBackgroundColor=none;" parent="1" vertex="1">
          <mxGeometry x="880" y="1910" width="120" height="50" as="geometry" />
        </mxCell>
        <mxCell id="80T7CH2zztr_whJAa2gL-109" value="" style="edgeStyle=orthogonalEdgeStyle;rounded=0;orthogonalLoop=1;jettySize=auto;html=1;labelBackgroundColor=none;fontColor=default;" parent="1" source="80T7CH2zztr_whJAa2gL-101" target="80T7CH2zztr_whJAa2gL-108" edge="1">
          <mxGeometry relative="1" as="geometry" />
        </mxCell>
        <mxCell id="80T7CH2zztr_whJAa2gL-101" value="进入收货地围栏" style="rounded=0;whiteSpace=wrap;html=1;labelBackgroundColor=none;" parent="1" vertex="1">
          <mxGeometry x="1080" y="1910" width="120" height="50" as="geometry" />
        </mxCell>
        <mxCell id="80T7CH2zztr_whJAa2gL-113" value="" style="edgeStyle=orthogonalEdgeStyle;rounded=0;orthogonalLoop=1;jettySize=auto;html=1;labelBackgroundColor=none;fontColor=default;" parent="1" source="80T7CH2zztr_whJAa2gL-103" target="80T7CH2zztr_whJAa2gL-112" edge="1">
          <mxGeometry relative="1" as="geometry" />
        </mxCell>
        <mxCell id="80T7CH2zztr_whJAa2gL-103" value="异常信息处理" style="rounded=1;whiteSpace=wrap;html=1;labelBackgroundColor=none;" parent="1" vertex="1">
          <mxGeometry x="650" y="1910" width="110" height="50" as="geometry" />
        </mxCell>
        <mxCell id="80T7CH2zztr_whJAa2gL-111" value="" style="edgeStyle=orthogonalEdgeStyle;rounded=0;orthogonalLoop=1;jettySize=auto;html=1;labelBackgroundColor=none;fontColor=default;" parent="1" source="80T7CH2zztr_whJAa2gL-106" target="80T7CH2zztr_whJAa2gL-110" edge="1">
          <mxGeometry relative="1" as="geometry" />
        </mxCell>
        <mxCell id="80T7CH2zztr_whJAa2gL-106" value="记录次数" style="rounded=0;whiteSpace=wrap;html=1;labelBackgroundColor=none;" parent="1" vertex="1">
          <mxGeometry x="880" y="2040" width="120" height="50" as="geometry" />
        </mxCell>
        <mxCell id="80T7CH2zztr_whJAa2gL-108" value="记录次数" style="rounded=0;whiteSpace=wrap;html=1;labelBackgroundColor=none;" parent="1" vertex="1">
          <mxGeometry x="1080" y="2040" width="120" height="50" as="geometry" />
        </mxCell>
        <mxCell id="80T7CH2zztr_whJAa2gL-110" value="发送通知" style="rounded=0;whiteSpace=wrap;html=1;labelBackgroundColor=none;" parent="1" vertex="1">
          <mxGeometry x="880" y="2170" width="120" height="50" as="geometry" />
        </mxCell>
        <mxCell id="80T7CH2zztr_whJAa2gL-115" value="" style="edgeStyle=orthogonalEdgeStyle;rounded=0;orthogonalLoop=1;jettySize=auto;html=1;labelBackgroundColor=none;fontColor=default;" parent="1" source="80T7CH2zztr_whJAa2gL-112" target="80T7CH2zztr_whJAa2gL-114" edge="1">
          <mxGeometry relative="1" as="geometry" />
        </mxCell>
        <mxCell id="80T7CH2zztr_whJAa2gL-117" value="" style="edgeStyle=orthogonalEdgeStyle;rounded=0;orthogonalLoop=1;jettySize=auto;html=1;labelBackgroundColor=none;fontColor=default;" parent="1" source="80T7CH2zztr_whJAa2gL-112" target="80T7CH2zztr_whJAa2gL-116" edge="1">
          <mxGeometry relative="1" as="geometry" />
        </mxCell>
        <mxCell id="80T7CH2zztr_whJAa2gL-112" value="查询有无过磅信息" style="rounded=1;whiteSpace=wrap;html=1;labelBackgroundColor=none;" parent="1" vertex="1">
          <mxGeometry x="650" y="2040" width="110" height="50" as="geometry" />
        </mxCell>
        <mxCell id="80T7CH2zztr_whJAa2gL-131" value="" style="edgeStyle=orthogonalEdgeStyle;rounded=0;orthogonalLoop=1;jettySize=auto;html=1;labelBackgroundColor=none;fontColor=default;" parent="1" source="80T7CH2zztr_whJAa2gL-114" target="80T7CH2zztr_whJAa2gL-130" edge="1">
          <mxGeometry relative="1" as="geometry" />
        </mxCell>
        <mxCell id="80T7CH2zztr_whJAa2gL-114" value="有过磅信息异常处理" style="rounded=1;whiteSpace=wrap;html=1;labelBackgroundColor=none;" parent="1" vertex="1">
          <mxGeometry x="460" y="2040" width="110" height="50" as="geometry" />
        </mxCell>
        <mxCell id="80T7CH2zztr_whJAa2gL-121" value="" style="edgeStyle=orthogonalEdgeStyle;rounded=0;orthogonalLoop=1;jettySize=auto;html=1;labelBackgroundColor=none;fontColor=default;" parent="1" source="80T7CH2zztr_whJAa2gL-116" target="80T7CH2zztr_whJAa2gL-120" edge="1">
          <mxGeometry relative="1" as="geometry" />
        </mxCell>
        <mxCell id="80T7CH2zztr_whJAa2gL-116" value="司机是否有到货确认" style="rounded=1;whiteSpace=wrap;html=1;labelBackgroundColor=none;" parent="1" vertex="1">
          <mxGeometry x="650" y="2170" width="110" height="50" as="geometry" />
        </mxCell>
        <mxCell id="80T7CH2zztr_whJAa2gL-124" value="" style="edgeStyle=orthogonalEdgeStyle;rounded=0;orthogonalLoop=1;jettySize=auto;html=1;labelBackgroundColor=none;fontColor=default;" parent="1" source="80T7CH2zztr_whJAa2gL-120" target="80T7CH2zztr_whJAa2gL-123" edge="1">
          <mxGeometry relative="1" as="geometry" />
        </mxCell>
        <mxCell id="80T7CH2zztr_whJAa2gL-120" value="离开收货栏，又进入发货栏" style="rounded=1;whiteSpace=wrap;html=1;labelBackgroundColor=none;" parent="1" vertex="1">
          <mxGeometry x="650" y="2300" width="110" height="50" as="geometry" />
        </mxCell>
        <mxCell id="80T7CH2zztr_whJAa2gL-122" value="没有" style="text;html=1;align=center;verticalAlign=middle;resizable=0;points=[];autosize=1;strokeColor=none;fillColor=none;labelBackgroundColor=none;" parent="1" vertex="1">
          <mxGeometry x="695" y="2105" width="50" height="30" as="geometry" />
        </mxCell>
        <mxCell id="80T7CH2zztr_whJAa2gL-123" value="发送信息给货主" style="rounded=1;whiteSpace=wrap;html=1;labelBackgroundColor=none;" parent="1" vertex="1">
          <mxGeometry x="650" y="2430" width="110" height="50" as="geometry" />
        </mxCell>
        <mxCell id="80T7CH2zztr_whJAa2gL-129" value="" style="edgeStyle=orthogonalEdgeStyle;rounded=0;orthogonalLoop=1;jettySize=auto;html=1;labelBackgroundColor=none;fontColor=default;" parent="1" source="80T7CH2zztr_whJAa2gL-125" target="80T7CH2zztr_whJAa2gL-128" edge="1">
          <mxGeometry relative="1" as="geometry" />
        </mxCell>
        <mxCell id="80T7CH2zztr_whJAa2gL-125" value="未开启派车单" style="rounded=0;whiteSpace=wrap;html=1;labelBackgroundColor=none;" parent="1" vertex="1">
          <mxGeometry x="470" y="2170" width="110" height="50" as="geometry" />
        </mxCell>
        <mxCell id="80T7CH2zztr_whJAa2gL-126" value="" style="endArrow=classic;html=1;rounded=0;entryX=1;entryY=0.25;entryDx=0;entryDy=0;labelBackgroundColor=none;fontColor=default;" parent="1" target="80T7CH2zztr_whJAa2gL-125" edge="1">
          <mxGeometry width="50" height="50" relative="1" as="geometry">
            <mxPoint x="695" y="2090" as="sourcePoint" />
            <mxPoint x="665" y="2150" as="targetPoint" />
          </mxGeometry>
        </mxCell>
        <mxCell id="80T7CH2zztr_whJAa2gL-128" value="离开发货地，又进入收货地" style="rounded=0;whiteSpace=wrap;html=1;labelBackgroundColor=none;" parent="1" vertex="1">
          <mxGeometry x="470" y="2300" width="110" height="50" as="geometry" />
        </mxCell>
        <mxCell id="80T7CH2zztr_whJAa2gL-133" value="" style="edgeStyle=orthogonalEdgeStyle;rounded=0;orthogonalLoop=1;jettySize=auto;html=1;labelBackgroundColor=none;fontColor=default;" parent="1" source="80T7CH2zztr_whJAa2gL-130" target="80T7CH2zztr_whJAa2gL-132" edge="1">
          <mxGeometry relative="1" as="geometry" />
        </mxCell>
        <mxCell id="80T7CH2zztr_whJAa2gL-130" value="司机正在往返过程中" style="rounded=1;whiteSpace=wrap;html=1;labelBackgroundColor=none;" parent="1" vertex="1">
          <mxGeometry x="270" y="2040" width="110" height="50" as="geometry" />
        </mxCell>
        <mxCell id="80T7CH2zztr_whJAa2gL-132" value="给货主发送信息" style="rounded=1;whiteSpace=wrap;html=1;labelBackgroundColor=none;" parent="1" vertex="1">
          <mxGeometry x="80" y="2040" width="110" height="50" as="geometry" />
        </mxCell>
        <mxCell id="hD3RiUdLxanTRxSvfHo--1" value="" style="group" vertex="1" connectable="0" parent="1">
          <mxGeometry x="550" y="70" width="610" height="820" as="geometry" />
        </mxCell>
        <mxCell id="80T7CH2zztr_whJAa2gL-30" value="" style="rounded=0;whiteSpace=wrap;html=1;labelBackgroundColor=none;" parent="hD3RiUdLxanTRxSvfHo--1" vertex="1">
          <mxGeometry width="610" height="820" as="geometry" />
        </mxCell>
        <mxCell id="80T7CH2zztr_whJAa2gL-3" value="开始派单" style="rounded=0;whiteSpace=wrap;html=1;labelBackgroundColor=none;" parent="hD3RiUdLxanTRxSvfHo--1" vertex="1">
          <mxGeometry x="200" y="15" width="110" height="40" as="geometry" />
        </mxCell>
        <mxCell id="80T7CH2zztr_whJAa2gL-6" value="百度接口修改状态" style="html=1;whiteSpace=wrap;labelBackgroundColor=none;" parent="hD3RiUdLxanTRxSvfHo--1" vertex="1">
          <mxGeometry x="200" y="180" width="110" height="40" as="geometry" />
        </mxCell>
        <mxCell id="80T7CH2zztr_whJAa2gL-8" value="" style="edgeStyle=orthogonalEdgeStyle;rounded=0;orthogonalLoop=1;jettySize=auto;html=1;labelBackgroundColor=none;fontColor=default;" parent="hD3RiUdLxanTRxSvfHo--1" source="80T7CH2zztr_whJAa2gL-3" target="80T7CH2zztr_whJAa2gL-6" edge="1">
          <mxGeometry relative="1" as="geometry" />
        </mxCell>
        <mxCell id="80T7CH2zztr_whJAa2gL-24" value="订阅车牌号" style="html=1;whiteSpace=wrap;labelBackgroundColor=none;" parent="hD3RiUdLxanTRxSvfHo--1" vertex="1">
          <mxGeometry x="200" y="270" width="110" height="40" as="geometry" />
        </mxCell>
        <mxCell id="80T7CH2zztr_whJAa2gL-25" value="" style="edgeStyle=orthogonalEdgeStyle;rounded=0;orthogonalLoop=1;jettySize=auto;html=1;labelBackgroundColor=none;fontColor=default;" parent="hD3RiUdLxanTRxSvfHo--1" source="80T7CH2zztr_whJAa2gL-6" target="80T7CH2zztr_whJAa2gL-24" edge="1">
          <mxGeometry relative="1" as="geometry" />
        </mxCell>
        <mxCell id="80T7CH2zztr_whJAa2gL-28" value="" style="edgeStyle=orthogonalEdgeStyle;rounded=0;orthogonalLoop=1;jettySize=auto;html=1;labelBackgroundColor=none;fontColor=default;" parent="hD3RiUdLxanTRxSvfHo--1" source="80T7CH2zztr_whJAa2gL-5" edge="1">
          <mxGeometry relative="1" as="geometry">
            <mxPoint x="120" y="380" as="targetPoint" />
          </mxGeometry>
        </mxCell>
        <mxCell id="80T7CH2zztr_whJAa2gL-5" value="保存车牌号对应关系" style="html=1;whiteSpace=wrap;labelBackgroundColor=none;" parent="hD3RiUdLxanTRxSvfHo--1" vertex="1">
          <mxGeometry x="200" y="360" width="110" height="40" as="geometry" />
        </mxCell>
        <mxCell id="80T7CH2zztr_whJAa2gL-26" value="" style="edgeStyle=orthogonalEdgeStyle;rounded=0;orthogonalLoop=1;jettySize=auto;html=1;labelBackgroundColor=none;fontColor=default;" parent="hD3RiUdLxanTRxSvfHo--1" source="80T7CH2zztr_whJAa2gL-24" target="80T7CH2zztr_whJAa2gL-5" edge="1">
          <mxGeometry relative="1" as="geometry" />
        </mxCell>
        <mxCell id="80T7CH2zztr_whJAa2gL-7" value="保存派车单详情" style="html=1;whiteSpace=wrap;labelBackgroundColor=none;" parent="hD3RiUdLxanTRxSvfHo--1" vertex="1">
          <mxGeometry x="200" y="450" width="110" height="40" as="geometry" />
        </mxCell>
        <mxCell id="80T7CH2zztr_whJAa2gL-10" value="" style="edgeStyle=orthogonalEdgeStyle;rounded=0;orthogonalLoop=1;jettySize=auto;html=1;labelBackgroundColor=none;fontColor=default;" parent="hD3RiUdLxanTRxSvfHo--1" source="80T7CH2zztr_whJAa2gL-5" target="80T7CH2zztr_whJAa2gL-7" edge="1">
          <mxGeometry relative="1" as="geometry" />
        </mxCell>
        <mxCell id="80T7CH2zztr_whJAa2gL-11" value="disCar" style="strokeWidth=2;html=1;shape=mxgraph.flowchart.database;whiteSpace=wrap;labelBackgroundColor=none;" parent="hD3RiUdLxanTRxSvfHo--1" vertex="1">
          <mxGeometry x="410" y="440" width="60" height="60" as="geometry" />
        </mxCell>
        <mxCell id="80T7CH2zztr_whJAa2gL-12" value="" style="edgeStyle=orthogonalEdgeStyle;rounded=0;orthogonalLoop=1;jettySize=auto;html=1;labelBackgroundColor=none;fontColor=default;" parent="hD3RiUdLxanTRxSvfHo--1" source="80T7CH2zztr_whJAa2gL-7" target="80T7CH2zztr_whJAa2gL-11" edge="1">
          <mxGeometry relative="1" as="geometry" />
        </mxCell>
        <mxCell id="80T7CH2zztr_whJAa2gL-15" value="redis" style="html=1;whiteSpace=wrap;labelBackgroundColor=none;" parent="hD3RiUdLxanTRxSvfHo--1" vertex="1">
          <mxGeometry x="390" y="360" width="110" height="40" as="geometry" />
        </mxCell>
        <mxCell id="80T7CH2zztr_whJAa2gL-16" value="" style="edgeStyle=orthogonalEdgeStyle;rounded=0;orthogonalLoop=1;jettySize=auto;html=1;labelBackgroundColor=none;fontColor=default;" parent="hD3RiUdLxanTRxSvfHo--1" source="80T7CH2zztr_whJAa2gL-5" target="80T7CH2zztr_whJAa2gL-15" edge="1">
          <mxGeometry relative="1" as="geometry" />
        </mxCell>
        <mxCell id="80T7CH2zztr_whJAa2gL-29" value="car" style="strokeWidth=2;html=1;shape=mxgraph.flowchart.database;whiteSpace=wrap;labelBackgroundColor=none;" parent="hD3RiUdLxanTRxSvfHo--1" vertex="1">
          <mxGeometry x="60" y="350" width="60" height="60" as="geometry" />
        </mxCell>
        <mxCell id="80T7CH2zztr_whJAa2gL-31" value="派单操作" style="text;html=1;strokeColor=none;fillColor=none;align=center;verticalAlign=middle;whiteSpace=wrap;rounded=0;labelBackgroundColor=none;" parent="hD3RiUdLxanTRxSvfHo--1" vertex="1">
          <mxGeometry x="440" y="15" width="60" height="30" as="geometry" />
        </mxCell>
        <mxCell id="80T7CH2zztr_whJAa2gL-37" value="流程结束" style="html=1;whiteSpace=wrap;labelBackgroundColor=none;" parent="hD3RiUdLxanTRxSvfHo--1" vertex="1">
          <mxGeometry x="200" y="550" width="110" height="40" as="geometry" />
        </mxCell>
        <mxCell id="80T7CH2zztr_whJAa2gL-38" value="" style="edgeStyle=orthogonalEdgeStyle;rounded=0;orthogonalLoop=1;jettySize=auto;html=1;labelBackgroundColor=none;fontColor=default;" parent="hD3RiUdLxanTRxSvfHo--1" source="80T7CH2zztr_whJAa2gL-7" target="80T7CH2zztr_whJAa2gL-37" edge="1">
          <mxGeometry relative="1" as="geometry" />
        </mxCell>
        <mxCell id="80T7CH2zztr_whJAa2gL-94" value="是否开启派车单标识" style="html=1;whiteSpace=wrap;labelBackgroundColor=none;" parent="hD3RiUdLxanTRxSvfHo--1" vertex="1">
          <mxGeometry x="30" y="455" width="110" height="30" as="geometry" />
        </mxCell>
        <mxCell id="80T7CH2zztr_whJAa2gL-95" value="" style="edgeStyle=orthogonalEdgeStyle;rounded=0;orthogonalLoop=1;jettySize=auto;html=1;labelBackgroundColor=none;fontColor=default;" parent="hD3RiUdLxanTRxSvfHo--1" source="80T7CH2zztr_whJAa2gL-7" target="80T7CH2zztr_whJAa2gL-94" edge="1">
          <mxGeometry relative="1" as="geometry" />
        </mxCell>
      </root>
    </mxGraphModel>
  </diagram>
  <diagram id="LYRumfAs5K8UenKALBHm" name="派车单开始">
    <mxGraphModel dx="1427" dy="776" grid="1" gridSize="10" guides="1" tooltips="1" connect="1" arrows="1" fold="1" page="1" pageScale="1" pageWidth="2339" pageHeight="3300" math="0" shadow="0">
      <root>
        <mxCell id="0" />
        <mxCell id="1" parent="0" />
        <mxCell id="33YMb6wi-cXJhNgrvR-L-24" value="" style="edgeStyle=orthogonalEdgeStyle;rounded=0;orthogonalLoop=1;jettySize=auto;html=1;" edge="1" parent="1" source="33YMb6wi-cXJhNgrvR-L-3" target="33YMb6wi-cXJhNgrvR-L-23">
          <mxGeometry relative="1" as="geometry" />
        </mxCell>
        <mxCell id="33YMb6wi-cXJhNgrvR-L-3" value="开始派单" style="rounded=0;whiteSpace=wrap;html=1;labelBackgroundColor=none;" vertex="1" parent="1">
          <mxGeometry x="496.55737704918033" y="51.09634146341464" width="113.60655737704919" height="44.390243902439025" as="geometry" />
        </mxCell>
        <mxCell id="33YMb6wi-cXJhNgrvR-L-18" value="&lt;font style=&quot;font-size: 25px;&quot;&gt;派单操作&lt;/font&gt;" style="text;html=1;strokeColor=none;fillColor=none;align=center;verticalAlign=middle;whiteSpace=wrap;rounded=0;labelBackgroundColor=none;" vertex="1" parent="1">
          <mxGeometry x="1160" y="30" width="200" height="130" as="geometry" />
        </mxCell>
        <mxCell id="33YMb6wi-cXJhNgrvR-L-27" value="" style="edgeStyle=orthogonalEdgeStyle;rounded=0;orthogonalLoop=1;jettySize=auto;html=1;" edge="1" parent="1" source="33YMb6wi-cXJhNgrvR-L-23" target="33YMb6wi-cXJhNgrvR-L-26">
          <mxGeometry relative="1" as="geometry" />
        </mxCell>
        <mxCell id="33YMb6wi-cXJhNgrvR-L-23" value="查询数据" style="rounded=0;whiteSpace=wrap;html=1;labelBackgroundColor=none;" vertex="1" parent="1">
          <mxGeometry x="496.5573770491804" y="149.99658536585366" width="113.60655737704919" height="44.390243902439025" as="geometry" />
        </mxCell>
        <mxCell id="33YMb6wi-cXJhNgrvR-L-25" value="" style="group" vertex="1" connectable="0" parent="1">
          <mxGeometry x="320.983606557377" y="469.9960975609756" width="485.40983606557376" height="464.76" as="geometry" />
        </mxCell>
        <mxCell id="33YMb6wi-cXJhNgrvR-L-4" value="百度接口修改状态" style="html=1;whiteSpace=wrap;labelBackgroundColor=none;" vertex="1" parent="33YMb6wi-cXJhNgrvR-L-25">
          <mxGeometry x="175.57377049180326" width="113.60655737704919" height="44.390243902439025" as="geometry" />
        </mxCell>
        <mxCell id="33YMb6wi-cXJhNgrvR-L-6" value="百度订阅车牌号位置信息" style="html=1;whiteSpace=wrap;labelBackgroundColor=none;" vertex="1" parent="33YMb6wi-cXJhNgrvR-L-25">
          <mxGeometry x="175.57377049180326" y="109.63804878048782" width="113.60655737704919" height="44.390243902439025" as="geometry" />
        </mxCell>
        <mxCell id="33YMb6wi-cXJhNgrvR-L-7" value="" style="edgeStyle=orthogonalEdgeStyle;rounded=0;orthogonalLoop=1;jettySize=auto;html=1;labelBackgroundColor=none;fontColor=default;" edge="1" parent="33YMb6wi-cXJhNgrvR-L-25" source="33YMb6wi-cXJhNgrvR-L-4" target="33YMb6wi-cXJhNgrvR-L-6">
          <mxGeometry relative="1" as="geometry" />
        </mxCell>
        <mxCell id="33YMb6wi-cXJhNgrvR-L-8" value="" style="edgeStyle=orthogonalEdgeStyle;rounded=0;orthogonalLoop=1;jettySize=auto;html=1;labelBackgroundColor=none;fontColor=default;" edge="1" parent="33YMb6wi-cXJhNgrvR-L-25" source="33YMb6wi-cXJhNgrvR-L-9">
          <mxGeometry relative="1" as="geometry">
            <mxPoint x="92.9508196721311" y="231.71121951219513" as="targetPoint" />
          </mxGeometry>
        </mxCell>
        <mxCell id="33YMb6wi-cXJhNgrvR-L-9" value="保存车牌号对应关系" style="html=1;whiteSpace=wrap;labelBackgroundColor=none;" vertex="1" parent="33YMb6wi-cXJhNgrvR-L-25">
          <mxGeometry x="175.57377049180326" y="209.51609756097562" width="113.60655737704919" height="44.390243902439025" as="geometry" />
        </mxCell>
        <mxCell id="33YMb6wi-cXJhNgrvR-L-10" value="" style="edgeStyle=orthogonalEdgeStyle;rounded=0;orthogonalLoop=1;jettySize=auto;html=1;labelBackgroundColor=none;fontColor=default;" edge="1" parent="33YMb6wi-cXJhNgrvR-L-25" source="33YMb6wi-cXJhNgrvR-L-6" target="33YMb6wi-cXJhNgrvR-L-9">
          <mxGeometry relative="1" as="geometry" />
        </mxCell>
        <mxCell id="33YMb6wi-cXJhNgrvR-L-11" value="保存派车单详情" style="html=1;whiteSpace=wrap;labelBackgroundColor=none;" vertex="1" parent="33YMb6wi-cXJhNgrvR-L-25">
          <mxGeometry x="175.57377049180326" y="309.3941463414635" width="113.60655737704919" height="44.390243902439025" as="geometry" />
        </mxCell>
        <mxCell id="33YMb6wi-cXJhNgrvR-L-12" value="" style="edgeStyle=orthogonalEdgeStyle;rounded=0;orthogonalLoop=1;jettySize=auto;html=1;labelBackgroundColor=none;fontColor=default;" edge="1" parent="33YMb6wi-cXJhNgrvR-L-25" source="33YMb6wi-cXJhNgrvR-L-9" target="33YMb6wi-cXJhNgrvR-L-11">
          <mxGeometry relative="1" as="geometry" />
        </mxCell>
        <mxCell id="33YMb6wi-cXJhNgrvR-L-13" value="disCar" style="strokeWidth=2;html=1;shape=mxgraph.flowchart.database;whiteSpace=wrap;labelBackgroundColor=none;" vertex="1" parent="33YMb6wi-cXJhNgrvR-L-25">
          <mxGeometry x="392.4590163934426" y="298.2965853658536" width="61.9672131147541" height="66.58536585365854" as="geometry" />
        </mxCell>
        <mxCell id="33YMb6wi-cXJhNgrvR-L-14" value="" style="edgeStyle=orthogonalEdgeStyle;rounded=0;orthogonalLoop=1;jettySize=auto;html=1;labelBackgroundColor=none;fontColor=default;" edge="1" parent="33YMb6wi-cXJhNgrvR-L-25" source="33YMb6wi-cXJhNgrvR-L-11" target="33YMb6wi-cXJhNgrvR-L-13">
          <mxGeometry relative="1" as="geometry" />
        </mxCell>
        <mxCell id="33YMb6wi-cXJhNgrvR-L-15" value="redis" style="html=1;whiteSpace=wrap;labelBackgroundColor=none;" vertex="1" parent="33YMb6wi-cXJhNgrvR-L-25">
          <mxGeometry x="371.8032786885246" y="209.51609756097562" width="113.60655737704919" height="44.390243902439025" as="geometry" />
        </mxCell>
        <mxCell id="33YMb6wi-cXJhNgrvR-L-16" value="" style="edgeStyle=orthogonalEdgeStyle;rounded=0;orthogonalLoop=1;jettySize=auto;html=1;labelBackgroundColor=none;fontColor=default;" edge="1" parent="33YMb6wi-cXJhNgrvR-L-25" source="33YMb6wi-cXJhNgrvR-L-9" target="33YMb6wi-cXJhNgrvR-L-15">
          <mxGeometry relative="1" as="geometry" />
        </mxCell>
        <mxCell id="33YMb6wi-cXJhNgrvR-L-17" value="car" style="strokeWidth=2;html=1;shape=mxgraph.flowchart.database;whiteSpace=wrap;labelBackgroundColor=none;" vertex="1" parent="33YMb6wi-cXJhNgrvR-L-25">
          <mxGeometry x="30.983606557377016" y="198.41853658536584" width="61.9672131147541" height="66.58536585365854" as="geometry" />
        </mxCell>
        <mxCell id="33YMb6wi-cXJhNgrvR-L-21" value="是否开启派车单标识" style="html=1;whiteSpace=wrap;labelBackgroundColor=none;" vertex="1" parent="33YMb6wi-cXJhNgrvR-L-25">
          <mxGeometry y="314.94292682926834" width="113.60655737704919" height="33.29268292682927" as="geometry" />
        </mxCell>
        <mxCell id="33YMb6wi-cXJhNgrvR-L-22" value="" style="edgeStyle=orthogonalEdgeStyle;rounded=0;orthogonalLoop=1;jettySize=auto;html=1;labelBackgroundColor=none;fontColor=default;" edge="1" parent="33YMb6wi-cXJhNgrvR-L-25" source="33YMb6wi-cXJhNgrvR-L-11" target="33YMb6wi-cXJhNgrvR-L-21">
          <mxGeometry relative="1" as="geometry" />
        </mxCell>
        <mxCell id="33YMb6wi-cXJhNgrvR-L-31" value="" style="edgeStyle=orthogonalEdgeStyle;rounded=0;orthogonalLoop=1;jettySize=auto;html=1;" edge="1" parent="1" source="33YMb6wi-cXJhNgrvR-L-26" target="33YMb6wi-cXJhNgrvR-L-30">
          <mxGeometry relative="1" as="geometry" />
        </mxCell>
        <mxCell id="33YMb6wi-cXJhNgrvR-L-41" value="" style="edgeStyle=orthogonalEdgeStyle;rounded=0;orthogonalLoop=1;jettySize=auto;html=1;entryX=0.5;entryY=0;entryDx=0;entryDy=0;" edge="1" parent="1" source="33YMb6wi-cXJhNgrvR-L-26" target="33YMb6wi-cXJhNgrvR-L-4">
          <mxGeometry relative="1" as="geometry">
            <mxPoint x="553.360655737705" y="426.5819512195121" as="targetPoint" />
          </mxGeometry>
        </mxCell>
        <mxCell id="33YMb6wi-cXJhNgrvR-L-46" value="no" style="edgeLabel;html=1;align=center;verticalAlign=middle;resizable=0;points=[];" vertex="1" connectable="0" parent="33YMb6wi-cXJhNgrvR-L-41">
          <mxGeometry x="-0.2783" y="1" relative="1" as="geometry">
            <mxPoint as="offset" />
          </mxGeometry>
        </mxCell>
        <mxCell id="33YMb6wi-cXJhNgrvR-L-26" value="是否最后一单" style="rhombus;whiteSpace=wrap;html=1;rounded=0;labelBackgroundColor=none;" vertex="1" parent="1">
          <mxGeometry x="513.360655737705" y="256.5819512195122" width="80" height="80" as="geometry" />
        </mxCell>
        <mxCell id="33YMb6wi-cXJhNgrvR-L-33" value="" style="edgeStyle=orthogonalEdgeStyle;rounded=0;orthogonalLoop=1;jettySize=auto;html=1;" edge="1" parent="1" source="33YMb6wi-cXJhNgrvR-L-30" target="33YMb6wi-cXJhNgrvR-L-32">
          <mxGeometry relative="1" as="geometry" />
        </mxCell>
        <mxCell id="33YMb6wi-cXJhNgrvR-L-30" value="查询上一单状态" style="whiteSpace=wrap;html=1;rounded=0;labelBackgroundColor=none;" vertex="1" parent="1">
          <mxGeometry x="653.360655737705" y="266.5819512195122" width="120" height="60" as="geometry" />
        </mxCell>
        <mxCell id="33YMb6wi-cXJhNgrvR-L-35" value="" style="edgeStyle=orthogonalEdgeStyle;rounded=0;orthogonalLoop=1;jettySize=auto;html=1;" edge="1" parent="1" source="33YMb6wi-cXJhNgrvR-L-32" target="33YMb6wi-cXJhNgrvR-L-34">
          <mxGeometry relative="1" as="geometry" />
        </mxCell>
        <mxCell id="33YMb6wi-cXJhNgrvR-L-50" style="edgeStyle=orthogonalEdgeStyle;rounded=0;orthogonalLoop=1;jettySize=auto;html=1;entryX=1;entryY=0.5;entryDx=0;entryDy=0;" edge="1" parent="1" source="33YMb6wi-cXJhNgrvR-L-32" target="33YMb6wi-cXJhNgrvR-L-19">
          <mxGeometry relative="1" as="geometry">
            <Array as="points">
              <mxPoint x="913" y="1022" />
            </Array>
          </mxGeometry>
        </mxCell>
        <mxCell id="33YMb6wi-cXJhNgrvR-L-32" value="是否到货确认" style="rhombus;whiteSpace=wrap;html=1;rounded=0;labelBackgroundColor=none;" vertex="1" parent="1">
          <mxGeometry x="873.360655737705" y="256.5819512195122" width="80" height="80" as="geometry" />
        </mxCell>
        <mxCell id="33YMb6wi-cXJhNgrvR-L-37" value="" style="edgeStyle=orthogonalEdgeStyle;rounded=0;orthogonalLoop=1;jettySize=auto;html=1;" edge="1" parent="1" source="33YMb6wi-cXJhNgrvR-L-34" target="33YMb6wi-cXJhNgrvR-L-36">
          <mxGeometry relative="1" as="geometry" />
        </mxCell>
        <mxCell id="33YMb6wi-cXJhNgrvR-L-34" value="取消该车辆的订阅信息" style="whiteSpace=wrap;html=1;rounded=0;labelBackgroundColor=none;" vertex="1" parent="1">
          <mxGeometry x="1013.360655737705" y="266.5819512195122" width="120" height="60" as="geometry" />
        </mxCell>
        <mxCell id="33YMb6wi-cXJhNgrvR-L-39" value="" style="edgeStyle=orthogonalEdgeStyle;rounded=0;orthogonalLoop=1;jettySize=auto;html=1;" edge="1" parent="1" source="33YMb6wi-cXJhNgrvR-L-36" target="33YMb6wi-cXJhNgrvR-L-38">
          <mxGeometry relative="1" as="geometry" />
        </mxCell>
        <mxCell id="33YMb6wi-cXJhNgrvR-L-36" value="根据派车单查询出 车牌号、对应关系" style="whiteSpace=wrap;html=1;rounded=0;labelBackgroundColor=none;" vertex="1" parent="1">
          <mxGeometry x="1213.360655737705" y="266.5819512195122" width="120" height="60" as="geometry" />
        </mxCell>
        <mxCell id="33YMb6wi-cXJhNgrvR-L-51" style="edgeStyle=orthogonalEdgeStyle;rounded=0;orthogonalLoop=1;jettySize=auto;html=1;entryX=1;entryY=0.5;entryDx=0;entryDy=0;" edge="1" parent="1" source="33YMb6wi-cXJhNgrvR-L-38" target="33YMb6wi-cXJhNgrvR-L-19">
          <mxGeometry relative="1" as="geometry">
            <Array as="points">
              <mxPoint x="1480" y="1022" />
            </Array>
          </mxGeometry>
        </mxCell>
        <mxCell id="33YMb6wi-cXJhNgrvR-L-38" value="更新数据库操作、redis" style="whiteSpace=wrap;html=1;rounded=0;labelBackgroundColor=none;" vertex="1" parent="1">
          <mxGeometry x="1413.360655737705" y="266.5819512195122" width="120" height="60" as="geometry" />
        </mxCell>
        <mxCell id="33YMb6wi-cXJhNgrvR-L-42" value="是" style="text;html=1;align=center;verticalAlign=middle;resizable=0;points=[];autosize=1;strokeColor=none;fillColor=none;" vertex="1" parent="1">
          <mxGeometry x="960" y="275" width="40" height="30" as="geometry" />
        </mxCell>
        <mxCell id="33YMb6wi-cXJhNgrvR-L-45" value="yes" style="text;html=1;align=center;verticalAlign=middle;resizable=0;points=[];autosize=1;strokeColor=none;fillColor=none;" vertex="1" parent="1">
          <mxGeometry x="590" y="275" width="40" height="30" as="geometry" />
        </mxCell>
        <mxCell id="33YMb6wi-cXJhNgrvR-L-47" value="&lt;font style=&quot;font-size: 10px;&quot;&gt;根据上一单的余量和运输量，运输量小于余量，上一单为最后一单&lt;/font&gt;" style="shape=document;whiteSpace=wrap;html=1;boundedLbl=1;fillColor=#fff2cc;strokeColor=#d6b656;fontSize=9;" vertex="1" parent="1">
          <mxGeometry x="250" y="170" width="120" height="80" as="geometry" />
        </mxCell>
        <mxCell id="33YMb6wi-cXJhNgrvR-L-48" value="" style="curved=1;endArrow=classic;html=1;rounded=0;" edge="1" parent="1">
          <mxGeometry width="50" height="50" relative="1" as="geometry">
            <mxPoint x="373.36" y="240" as="sourcePoint" />
            <mxPoint x="513.36" y="295" as="targetPoint" />
            <Array as="points">
              <mxPoint x="423.36" y="240" />
              <mxPoint x="373.36" y="190" />
            </Array>
          </mxGeometry>
        </mxCell>
        <mxCell id="33YMb6wi-cXJhNgrvR-L-19" value="流程结束" style="html=1;whiteSpace=wrap;labelBackgroundColor=none;" vertex="1" parent="1">
          <mxGeometry x="496.5573770491803" y="999.9958536585366" width="113.60655737704919" height="44.390243902439025" as="geometry" />
        </mxCell>
        <mxCell id="33YMb6wi-cXJhNgrvR-L-20" value="" style="edgeStyle=orthogonalEdgeStyle;rounded=0;orthogonalLoop=1;jettySize=auto;html=1;labelBackgroundColor=none;fontColor=default;" edge="1" parent="1" source="33YMb6wi-cXJhNgrvR-L-11" target="33YMb6wi-cXJhNgrvR-L-19">
          <mxGeometry relative="1" as="geometry" />
        </mxCell>
      </root>
    </mxGraphModel>
  </diagram>
</mxfile>
